<svg version="1.1" xmlns="http://www.w3.org/2000/svg" xmlns:xlink="http://www.w3.org/1999/xlink" x="0" y="0" width="100%" height="50%" viewBox="0 0 2480 3052" enable-background="new 0 0 2480 3052" xml:space="preserve">
<g id="layer">
	<defs>
		<linearGradient xmlns="http://www.w3.org/2000/svg" id="logoGradient" x1="100%" y1="100%" gradientTransform="rotate(135 .5 .5)">
			
	          <stop offset="0%" stop-color="#16c6c0" stop-opacity="1">
	            <animate attributeName="stop-color" values="#16c6c0;#16b985;#437bbe;#4147c4;#1998ab;#16b985;#16c6c0" dur="18s" repeatCount="indefinite"/>
	          </stop>
	          <stop offset="0.565952" stop-color="#16c6c0" stop-opacity="1">
	            <animate attributeName="stop-color" values="#16c6c0;#1998ab;#437bbe;#4147c4;#16b985;#16c6c0" dur="6s" repeatCount="indefinite"/>
	            <animate attributeName="offset" values=".95;.80;.60;.40;.20;0" dur="14s" repeatCount="indefinite"/>
	          </stop>
	          
		</linearGradient>
	</defs>
	<path fill="url(#logoGradient)" stroke="url(#logoGradient)" stroke-width="3" stroke-miterlimit="10" d="M351.53,1194.086
		c15.069,15.5,24.963,26.263,29.708,32.291c-4.305,2.583-7.974,6.037-10.979,10.333c-3.014-6.027-10.118-15.5-21.312-28.416
		c-3.875,19.805-15.285,40.265-34.229,61.353c-0.87-2.162-4.305-5.167-10.333-9.041c13.777-13.777,23.142-27.34,28.093-40.687
		c4.942-13.338,7.427-29.923,7.427-49.728c0-19.796-0.224-32.291-0.646-37.457c5.588,1.292,10.548,1.938,14.854,1.938
		C353.244,1140.269,352.392,1160.082,351.53,1194.086z M409.977,1147.587c-0.224,5.597,0,15.724,0.646,30.354
		c0.646,14.638,5.265,30.254,13.885,46.822c8.611,16.576,18.944,29.169,31,37.78c-4.745,4.296-8.396,8.396-10.979,12.271
		c-19.375-17.652-32.721-40.687-40.041-69.103c-6.037,27.555-20.021,51.45-41.978,71.686c-3.014-3.453-6.683-6.458-10.979-9.042
		c13.338-10.333,23.465-22.379,30.354-36.166c6.88-13.777,11.194-27.223,12.916-40.363c1.713-13.132,2.153-33.681,1.292-61.676
		c5.167,0.87,10.333,1.516,15.5,1.938C410.721,1136.833,410.192,1142,409.977,1147.587z M525.255,1142.421
		c-4.306,0.87-7.75,1.516-10.333,1.938v28.416c6.458,0,13.562-0.215,21.312-0.646v10.333c-7.75-0.421-14.854-0.646-21.312-0.646
		v23.25c1.713-2.153,4.521-5.167,8.396-9.042c3.875,5.167,6.996,9.149,9.364,11.948c2.359,2.808,5.059,6.135,8.073,10.01
		c-3.875,2.162-7.104,4.745-9.688,7.75c-2.583-3.875-5.068-6.997-7.427-9.364c-2.368-2.359-5.274-5.49-8.718-9.365v40.687
		c0,6.458,0.215,15.069,0.646,25.833h-12.916c0.421-10.764,0.646-19.375,0.646-25.833v-40.041
		c-2.583,6.458-5.274,12.172-8.073,17.114c-2.807,4.951-7.005,11.526-12.593,19.697c-3.875-4.296-7.974-7.75-12.271-10.333
		c3.005-2.583,6.135-5.813,9.364-9.688s6.234-8.288,9.042-13.239c2.798-4.942,5.265-10.01,7.427-15.177
		c2.153-5.166,3.875-9.902,5.167-14.208c-6.889,0-16.576,0.224-29.062,0.646v-10.333c12.486,0.431,22.819,0.646,30.999,0.646
		v-25.833c-10.764,1.722-18.729,3.229-23.895,4.521c-1.722-4.736-3.453-8.817-5.167-12.271c6.88-0.861,12.046-1.39,15.5-1.615
		c3.444-0.215,7.319-0.744,11.625-1.614l13.563-3.229c4.736-1.292,9.687-2.798,14.854-4.521c1.713,4.306,4.09,8.62,7.104,12.917
		C533.426,1141.129,529.551,1141.56,525.255,1142.421z M568.524,1145.004h45.853c-6.458,15.078-11.948,25.294-16.468,30.676
		c-4.521,5.391-11.087,11.086-19.698,17.114c3.875,1.292,7.965,2.583,12.271,3.875c-2.583,3.454-4.951,7.104-7.104,10.979h37.458
		c-3.454,12.916-8.18,23.68-14.208,32.291c-6.037,8.62-12.593,15.4-19.697,20.343s-14.755,8.611-22.926,10.979
		c-8.181,2.359-16.37,4.62-24.541,6.781c-1.723-3.875-4.745-8.396-9.042-13.562c11.625-1.292,21.204-2.691,28.739-4.198
		c7.525-1.507,14.531-4.619,20.989-9.364c-2.583-3.875-7.104-9.042-13.562-15.5c2.153-1.713,4.942-3.875,8.396-6.458
		c3.444,3.014,8.396,7.974,14.854,14.854c3.004-3.875,6.027-8.073,9.042-12.593c3.004-4.521,5.166-9.14,6.458-13.885h-29.062
		c-3.453,3.454-7.104,7.005-10.979,10.656c-3.875,3.66-9.042,7.857-15.5,12.593c-3.454-3.875-6.889-6.88-10.333-9.042
		c11.194-6.458,19.15-12.369,23.895-17.76c4.736-5.382,8.611-11.517,11.625-18.406c-5.167,3.453-10.118,6.243-14.854,8.396
		c-4.745,2.162-10.764,4.521-18.083,7.104c-1.722-4.296-4.951-8.817-9.687-13.562c8.171-0.861,15.069-2.261,20.666-4.198
		c5.588-1.938,12.046-5.059,19.375-9.365c-6.037-5.166-10.764-9.256-14.208-12.27c1.713-2.153,4.521-4.736,8.396-7.75
		c5.588,4.745,10.548,9.266,14.854,13.562c3.444-3.005,6.458-6.234,9.042-9.687c2.583-3.444,4.736-7.75,6.458-12.917h-34.229
		c-5.597,9.042-10.764,16.37-15.5,21.958c-3.875-2.583-7.75-4.942-11.625-7.104c7.75-7.75,13.562-14.953,17.437-21.635
		c3.875-6.673,7.104-13.885,9.687-21.635c6.458,2.162,11.84,3.66,16.146,4.521C575.844,1133.81,572.399,1138.546,568.524,1145.004z M635.689,1183.107
		c6.458,0.431,14.208,0.646,23.25,0.646h24.541c7.75,0,16.567-0.215,26.479-0.646v11.625c-9.912-0.421-18.514-0.646-25.833-0.646
		h-7.104c-2.583,6.889-5.49,14.208-8.719,21.958s-7.005,15.5-11.302,23.25c16.791-1.713,29.483-3.444,38.103-5.167
		c-2.162-5.167-5.597-11.625-10.333-19.375c4.736-2.583,8.171-4.736,10.333-6.458c4.296,7.75,7.965,14.316,10.979,19.698
		c3.005,5.391,6.234,11.948,9.688,19.697c-3.454,2.162-7.329,4.305-11.625,6.458c-1.722-3.875-3.229-7.104-4.521-9.687
		c-13.787,2.162-24.864,3.875-33.26,5.167s-15.607,3.014-21.635,5.167c-1.722-4.296-3.875-8.396-6.458-12.271
		c5.588-3.444,10.656-10.333,15.177-20.666c4.521-10.333,7.848-19.59,10.01-27.77h-4.521c-9.042,0-16.791,0.224-23.25,0.646
		V1183.107z M680.25,1146.942c7.319,0,15.5-0.215,24.541-0.646v12.271c-9.042-0.421-17.222-0.646-24.541-0.646h-15.5
		c-6.889,0-13.563,0.224-20.021,0.646v-12.271c6.028,0.431,12.486,0.646,19.375,0.646H680.25z M749.999,1130.15
		c-0.87,4.306-1.399,9.149-1.615,14.531c-0.224,5.391-0.323,11.947-0.323,19.697h36.166c-0.431,5.597-0.87,11.849-1.292,18.729
		l-3.229,73.623c-1.292,8.611-4.844,13.885-10.656,15.822c-5.812,1.938-12.378,3.328-19.697,4.198
		c-1.292-5.167-3.453-9.912-6.458-14.208c9.463,0.421,15.921-0.108,19.375-1.615c3.444-1.507,5.167-4.413,5.167-8.719l3.875-76.852
		h-23.25c-0.87,18.953-2.26,33.367-4.198,43.27c-1.938,9.912-4.951,19.052-9.042,27.447c-4.099,8.396-12.378,19.267-24.864,32.614
		c-4.306-4.305-8.181-7.104-11.625-8.396c8.171-6.458,14.854-13.239,20.021-20.343s8.817-14.423,10.979-21.958
		c2.153-7.526,3.65-15.392,4.521-23.572c0.861-8.171,1.507-17.859,1.938-29.062h-10.979c-4.745,0-10.333,0.225-16.791,0.646v-12.271
		c6.458,0.431,12.486,0.646,18.083,0.646h9.687v-18.083c0-6.027-0.224-12.046-0.646-18.083
		C740.311,1129.505,745.253,1130.15,749.999,1130.15z M862.37,1157.921v95.58
		c0,9.042-1.937,14.531-5.812,16.469s-9.266,3.767-16.146,5.489c-1.722-6.458-3.875-11.625-6.458-15.5
		c6.027,0,10.333-0.215,12.916-0.646c2.583-0.421,3.875-3.65,3.875-9.687v-32.291h-25.187c-0.87,10.764-2.368,20.667-4.521,29.708
		c-2.162,9.042-5.167,17.859-9.042,26.479c-3.453-3.014-7.534-5.597-12.271-7.75c5.167-9.463,8.719-18.405,10.656-26.801
		c1.938-8.396,3.229-16.89,3.875-25.51c0.646-8.611,0.969-22.173,0.969-40.687c0-18.504-0.224-31.421-0.646-38.749h48.436
		C862.585,1137.479,862.37,1145.435,862.37,1157.921z M850.746,1206.357v-25.833h-23.895l-0.646,25.833H850.746z M850.746,1169.545
		v-24.541h-23.895v24.541H850.746z M889.495,1276.105h-12.271c0.421-10.333,0.646-20.021,0.646-29.062v-89.768
		c0-7.319-0.225-15.275-0.646-23.895h60.061c-0.431,6.036-0.87,12.593-1.292,19.697c-0.431,7.104-1.076,12.495-1.938,16.146
		c-0.87,3.659-3.453,6.359-7.75,8.072c-4.306,1.722-9.912,3.014-16.792,3.875c-1.292-5.167-3.229-9.463-5.812-12.916
		c10.754,0,16.791-1.184,18.083-3.552c1.292-2.359,1.938-9.14,1.938-20.343h-34.228v43.27h53.603
		c-1.722,11.203-3.875,21.213-6.458,30.031c-2.583,8.826-6.037,17.544-10.333,26.155c7.319,8.62,15.715,15.078,25.187,19.375
		c-3.014,2.583-6.037,6.234-9.041,10.979c-8.181-5.597-15.93-12.495-23.25-20.667c-5.167,7.329-12.271,15.069-21.312,23.25
		c-2.162-3.875-4.521-7.328-7.104-10.333c6.028-4.305,12.692-11.625,20.021-21.958c-5.597-7.319-11.203-22.604-16.792-45.853h-4.521
		V1276.105z M917.911,1234.127c5.167-9.902,8.817-21.733,10.979-35.52H905.64C909.084,1214.977,913.166,1226.808,917.911,1234.127z M1023.824,1143.713h71.686
		c-3.875,6.458-8.943,13.347-15.177,20.666c-6.243,7.328-14.109,14.208-23.572,20.666c6.027,3.875,14.208,6.781,24.541,8.718
		c10.333,1.938,22.604,3.13,36.812,3.552c-3.453,3.875-5.813,8.396-7.104,13.562c-12.055-0.861-23.895-3.005-35.52-6.458
		c-11.625-3.444-21.312-7.526-29.062-12.271c-13.786,6.458-26.263,11.203-37.457,14.208c-11.203,3.014-22.182,5.391-32.937,7.104
		c-1.722-5.167-4.305-9.688-7.75-13.563c9.463,0,20.235-1.292,32.291-3.875c12.046-2.583,23.895-6.233,35.52-10.979
		c-9.042-8.611-16.791-17.437-23.25-26.479c-7.328,9.042-14.854,16.576-22.604,22.604c-3.014-3.444-6.889-6.027-11.625-7.75
		c12.046-8.61,20.881-16.89,26.479-24.864c5.588-7.965,9.687-15.392,12.271-22.281c5.588,3.014,10.754,5.391,15.5,7.104
		C1029.412,1136.394,1026.407,1139.838,1023.824,1143.713z M1031.574,1218.627c0.861-5.166,1.292-11.194,1.292-18.083
		c5.167,0.87,10.333,1.516,15.5,1.938c-1.292,2.583-2.583,7.974-3.875,16.145h52.311c-0.431,5.167-0.87,11.087-1.292,17.76
		c-0.431,6.682-1.193,13.885-2.26,21.635c-1.077,7.75-4.198,12.271-9.365,13.562c-5.166,1.292-13.347,2.583-24.541,3.875
		c-0.87-5.597-3.014-10.333-6.458-14.208c12.486,0,20.021-0.421,22.604-1.292c2.583-0.861,4.297-3.229,5.167-7.104l1.937-24.541
		h-39.395c-6.037,18.514-14.531,30.578-25.51,36.166c-10.979,5.588-22.711,10.548-35.197,14.854
		c-1.292-3.875-4.306-8.396-9.042-13.563c10.333-0.87,21.087-4.099,32.291-9.687c11.194-5.588,19.15-14.854,23.896-27.77h-14.854
		c-12.917,0-22.388,0.431-28.416,1.292v-11.625c6.458,0.431,16.146,0.646,29.062,0.646H1031.574z M1072.26,1153.4h-48.436
		c8.171,10.764,15.921,18.953,23.249,24.541C1055.685,1172.774,1064.08,1164.603,1072.26,1153.4z M1164.289,1265.771
		c-12.701,2.153-21.635,4.09-26.801,5.813c-1.292-5.597-2.808-10.979-4.521-16.146c7.75-0.421,14.101-0.861,19.052-1.292
		c4.942-0.421,10.871-1.067,17.76-1.938v-25.187h-9.041c-8.62,0-15.931,0.43-21.958,1.292v-12.271
		c7.319,0.431,13.984,0.646,20.021,0.646h10.979v-21.312c-8.62,0.431-14.755,0.87-18.406,1.292
		c-3.66,0.431-7.651,1.077-11.947,1.938c-0.87-5.588-2.162-10.548-3.875-14.854c6.879-1.713,13.015-6.027,18.406-12.916
		c5.382-6.88,9.58-14.629,12.593-23.25h-9.687c-7.328,0-14.208,0.224-20.666,0.646v-12.271c6.879,0.431,13.562,0.646,20.02,0.646
		h41.333c7.75,0,14.629-0.215,20.666-0.646v12.271c-6.458-0.422-13.347-0.646-20.666-0.646h-26.479l11.625,7.75
		c-4.306,3.453-8.396,7.75-12.271,12.917c-3.875,5.166-8.396,10.763-13.562,16.791c15.5-0.861,29.923-1.713,43.27-2.583
		c-3.453-5.588-7.328-11.194-11.625-16.791c4.297-2.153,8.172-4.521,11.625-7.104c4.296,6.037,8.396,11.849,12.271,17.437
		c3.875,5.597,7.525,10.764,10.979,15.5c-3.875,3.014-8.18,5.813-12.916,8.396c-1.722-3.005-3.229-5.588-4.521-7.75
		c-9.042,1.292-16.576,2.162-22.604,2.583v21.958h12.271c7.319,0,13.562-0.215,18.729-0.646v12.271
		c-5.597-0.861-11.625-1.292-18.083-1.292h-12.916v23.895c12.046-1.713,24.756-3.65,38.103-5.813
		c-0.87,4.306-1.516,8.396-1.938,12.271C1195.387,1260.83,1176.981,1263.61,1164.289,1265.771z M1242.109,1171.483v48.436
		c0,9.042,0.216,16.576,0.646,22.604h-13.563c0.422-6.028,0.646-13.562,0.646-22.604v-51.02c0-8.611-0.224-15.5-0.646-20.666h14.208
		C1242.531,1153.831,1242.109,1161.58,1242.109,1171.483z M1275.047,1149.525v105.914c0,9.903-1.839,15.715-5.49,17.438
		c-3.659,1.713-11.525,3.65-23.572,5.812c-1.291-5.597-3.229-10.764-5.813-15.5c9.042,0,14.953-0.323,17.761-0.969
		c2.798-0.646,4.197-4.198,4.197-10.656v-102.039c0-9.463-0.224-16.791-0.646-21.958h14.854
		C1275.468,1134.025,1275.047,1141.354,1275.047,1149.525z M1351.898,1142.421
		c-4.306,0.87-7.75,1.516-10.333,1.938v28.416c6.458,0,13.562-0.215,21.312-0.646v10.333c-7.75-0.421-14.854-0.646-21.312-0.646
		v23.25c1.713-2.153,4.521-5.167,8.396-9.042c3.875,5.167,6.996,9.149,9.364,11.948c2.359,2.808,5.059,6.135,8.073,10.01
		c-3.875,2.162-7.104,4.745-9.688,7.75c-2.584-3.875-5.068-6.997-7.427-9.364c-2.368-2.359-5.274-5.49-8.719-9.365v40.687
		c0,6.458,0.215,15.069,0.646,25.833h-12.916c0.422-10.764,0.646-19.375,0.646-25.833v-40.041
		c-2.583,6.458-5.274,12.172-8.072,17.114c-2.808,4.951-7.006,11.526-12.594,19.697c-3.875-4.296-7.974-7.75-12.271-10.333
		c3.005-2.583,6.136-5.813,9.364-9.688c3.229-3.875,6.234-8.288,9.042-13.239c2.798-4.942,5.265-10.01,7.427-15.177
		c2.152-5.166,3.875-9.902,5.166-14.208c-6.889,0-16.575,0.224-29.062,0.646v-10.333c12.486,0.431,22.819,0.646,30.999,0.646
		v-25.833c-10.764,1.722-18.729,3.229-23.895,4.521c-1.723-4.736-3.454-8.817-5.167-12.271c6.88-0.861,12.047-1.39,15.5-1.615
		c3.444-0.215,7.318-0.744,11.624-1.614l13.563-3.229c4.736-1.292,9.688-2.798,14.854-4.521c1.714,4.306,4.091,8.62,7.104,12.917
		C1360.07,1141.129,1356.195,1141.56,1351.898,1142.421z M1395.168,1145.004h45.853c-6.458,15.078-11.947,25.294-16.468,30.676
		c-4.521,5.391-11.087,11.086-19.697,17.114c3.875,1.292,7.965,2.583,12.271,3.875c-2.583,3.454-4.951,7.104-7.104,10.979h37.458
		c-3.454,12.916-8.181,23.68-14.208,32.291c-6.037,8.62-12.594,15.4-19.697,20.343c-7.104,4.942-14.756,8.611-22.927,10.979
		c-8.181,2.359-16.37,4.62-24.541,6.781c-1.723-3.875-4.745-8.396-9.042-13.562c11.625-1.292,21.205-2.691,28.739-4.198
		c7.525-1.507,14.531-4.619,20.989-9.364c-2.584-3.875-7.104-9.042-13.563-15.5c2.152-1.713,4.942-3.875,8.396-6.458
		c3.444,3.014,8.396,7.974,14.854,14.854c3.004-3.875,6.027-8.073,9.041-12.593c3.005-4.521,5.166-9.14,6.458-13.885h-29.062
		c-3.453,3.454-7.104,7.005-10.979,10.656c-3.875,3.66-9.042,7.857-15.5,12.593c-3.453-3.875-6.889-6.88-10.333-9.042
		c11.194-6.458,19.15-12.369,23.896-17.76c4.735-5.382,8.61-11.517,11.624-18.406c-5.166,3.453-10.117,6.243-14.854,8.396
		c-4.745,2.162-10.764,4.521-18.083,7.104c-1.722-4.296-4.951-8.817-9.688-13.562c8.172-0.861,15.069-2.261,20.666-4.198
		c5.589-1.938,12.047-5.059,19.375-9.365c-6.037-5.166-10.764-9.256-14.208-12.27c1.713-2.153,4.521-4.736,8.396-7.75
		c5.588,4.745,10.549,9.266,14.854,13.562c3.444-3.005,6.459-6.234,9.042-9.687c2.583-3.444,4.735-7.75,6.458-12.917h-34.229
		c-5.597,9.042-10.764,16.37-15.499,21.958c-3.875-2.583-7.75-4.942-11.625-7.104c7.75-7.75,13.563-14.953,17.437-21.635
		c3.875-6.673,7.104-13.885,9.688-21.635c6.458,2.162,11.84,3.66,16.146,4.521
		C1402.487,1133.81,1399.043,1138.546,1395.168,1145.004z M1462.333,1183.107
		c6.458,0.431,14.208,0.646,23.249,0.646h24.541c7.75,0,16.567-0.215,26.479-0.646v11.625c-9.911-0.421-18.514-0.646-25.832-0.646
		h-7.104c-2.583,6.889-5.489,14.208-8.719,21.958c-3.229,7.75-7.005,15.5-11.302,23.25c16.791-1.713,29.483-3.444,38.104-5.167
		c-2.162-5.167-5.598-11.625-10.333-19.375c4.735-2.583,8.171-4.736,10.333-6.458c4.296,7.75,7.965,14.316,10.979,19.698
		c3.005,5.391,6.234,11.948,9.688,19.697c-3.453,2.162-7.328,4.305-11.625,6.458c-1.722-3.875-3.229-7.104-4.521-9.687
		c-13.786,2.162-24.864,3.875-33.26,5.167s-15.606,3.014-21.635,5.167c-1.722-4.296-3.875-8.396-6.458-12.271
		c5.588-3.444,10.656-10.333,15.177-20.666s7.849-19.59,10.01-27.77h-4.521c-9.041,0-16.791,0.224-23.249,0.646V1183.107z
		 M1506.895,1146.942c7.318,0,15.499-0.215,24.541-0.646v12.271c-9.042-0.421-17.223-0.646-24.541-0.646h-15.5
		c-6.889,0-13.563,0.224-20.021,0.646v-12.271c6.028,0.431,12.486,0.646,19.375,0.646H1506.895z M1576.643,1130.15
		c-0.87,4.306-1.399,9.149-1.615,14.531c-0.224,5.391-0.322,11.947-0.322,19.697h36.165c-0.431,5.597-0.87,11.849-1.291,18.729
		l-3.229,73.623c-1.292,8.611-4.844,13.885-10.656,15.822s-12.378,3.328-19.697,4.198c-1.291-5.167-3.453-9.912-6.458-14.208
		c9.463,0.421,15.921-0.108,19.374-1.615c3.445-1.507,5.167-4.413,5.167-8.719l3.875-76.852h-23.249
		c-0.87,18.953-2.261,33.367-4.198,43.27c-1.938,9.912-4.951,19.052-9.041,27.447c-4.1,8.396-12.378,19.267-24.864,32.614
		c-4.306-4.305-8.181-7.104-11.625-8.396c8.172-6.458,14.854-13.239,20.021-20.343c5.167-7.104,8.817-14.423,10.979-21.958
		c2.152-7.526,3.65-15.392,4.521-23.572c0.86-8.171,1.507-17.859,1.938-29.062h-10.979c-4.744,0-10.333,0.225-16.791,0.646v-12.271
		c6.458,0.431,12.486,0.646,18.083,0.646h9.688v-18.083c0-6.027-0.225-12.046-0.646-18.083
		C1566.955,1129.505,1571.897,1130.15,1576.643,1130.15z M1693.535,1131.442
		c-0.87,12.055-1.292,22.388-1.292,30.999v94.935h21.312v-102.685c0-6.88-0.43-14.629-1.291-23.249h16.146
		c-0.87,6.889-1.292,14.208-1.292,21.958v103.976h25.187c6.88,0,15.275-0.421,25.187-1.292v14.208
		c-9.911-0.87-18.082-1.292-24.541-1.292h-98.163c-6.037,0-14.639,0.421-25.833,1.292v-14.208c11.194,0.87,19.59,1.292,25.187,1.292
		h23.896v-95.581c0-9.042-0.646-19.15-1.938-30.353H1693.535z M1668.348,1222.502c-4.744,0.87-9.687,2.583-14.854,5.167
		c-7.75-24.963-14.639-44.337-20.666-58.124c4.297-1.713,9.041-3.651,14.208-5.813
		C1652.202,1177.08,1659.307,1196.669,1668.348,1222.502z M1748.429,1228.96c-4.305-2.583-8.826-4.521-13.562-5.813
		c9.041-16.791,15.921-37.027,20.666-60.707c4.736,1.722,10.108,3.453,16.146,5.167
		C1766.081,1182.246,1758.332,1202.706,1748.429,1228.96z M1850.468,1143.713h71.686
		c-3.875,6.458-8.942,13.347-15.177,20.666c-6.242,7.328-14.109,14.208-23.572,20.666c6.027,3.875,14.208,6.781,24.541,8.718
		c10.333,1.938,22.604,3.13,36.812,3.552c-3.453,3.875-5.813,8.396-7.104,13.562c-12.056-0.861-23.896-3.005-35.521-6.458
		c-11.624-3.444-21.312-7.526-29.062-12.271c-13.786,6.458-26.263,11.203-37.457,14.208c-11.203,3.014-22.183,5.391-32.937,7.104
		c-1.723-5.167-4.306-9.688-7.75-13.563c9.463,0,20.235-1.292,32.291-3.875c12.046-2.583,23.895-6.233,35.52-10.979
		c-9.041-8.611-16.791-17.437-23.249-26.479c-7.328,9.042-14.854,16.576-22.604,22.604c-3.014-3.444-6.889-6.027-11.625-7.75
		c12.046-8.61,20.882-16.89,26.479-24.864c5.588-7.965,9.688-15.392,12.271-22.281c5.588,3.014,10.755,5.391,15.5,7.104
		C1856.056,1136.394,1853.051,1139.838,1850.468,1143.713z M1858.218,1218.627c0.861-5.166,1.292-11.194,1.292-18.083
		c5.166,0.87,10.332,1.516,15.499,1.938c-1.292,2.583-2.583,7.974-3.875,16.145h52.312c-0.431,5.167-0.87,11.087-1.292,17.76
		c-0.431,6.682-1.192,13.885-2.261,21.635c-1.076,7.75-4.197,12.271-9.364,13.562c-5.166,1.292-13.347,2.583-24.541,3.875
		c-0.87-5.597-3.014-10.333-6.458-14.208c12.486,0,20.021-0.421,22.604-1.292c2.584-0.861,4.297-3.229,5.167-7.104l1.938-24.541
		h-39.396c-6.036,18.514-14.53,30.578-25.509,36.166c-10.979,5.588-22.712,10.548-35.197,14.854
		c-1.292-3.875-4.306-8.396-9.042-13.563c10.334-0.87,21.088-4.099,32.291-9.687c11.194-5.588,19.15-14.854,23.896-27.77h-14.854
		c-12.917,0-22.389,0.431-28.416,1.292v-11.625c6.458,0.431,16.146,0.646,29.062,0.646H1858.218z M1898.904,1153.4h-48.437
		c8.172,10.764,15.921,18.953,23.249,24.541C1882.328,1172.774,1890.724,1164.603,1898.904,1153.4z M298.771,1420.525l11.553-57.621h-7.185c1.256-9.364,3.122-18.738,5.624-28.102h48.4l5.786,65.425
		l32.632-65.425h48.4c-1.148,9.364-3.014,18.738-5.615,28.102h-7.032l-11.553,57.621h7.023c-0.52,4.682-1.247,9.364-2.18,14.046
		c-0.942,4.691-2.036,9.374-3.283,14.055h-41.377l12.019-60.581l-27.007,58.24h-23.268l-3.588-58.24l-12.028,60.581h-39.969
		c0.521-4.682,1.247-9.364,2.188-14.055c0.933-4.682,2.027-9.364,3.274-14.046H298.771z M437.576,1407.403c2.709-0.207,5.445-0.359,8.198-0.466c2.763-0.099,5.49-0.153,8.198-0.153
		c2.709,0,5.364,0.054,7.965,0.153c2.601,0.107,5.256,0.26,7.965,0.466c-0.421,1.776-0.655,2.915-0.708,3.435
		c-0.054,0.521-0.072,0.888-0.072,1.095c0,2.708,1.48,4.996,4.449,6.871c2.969,1.875,7.256,2.807,12.88,2.807
		c3.956,0,6.844-0.672,8.665-2.027s2.736-2.915,2.736-4.682c0-1.668-0.422-2.942-1.256-3.83c-0.834-0.879-2.7-1.74-5.615-2.574
		l-17.177-5.148c-3.436-1.041-6.871-2.243-10.306-3.597c-3.435-1.345-6.53-3.148-9.292-5.382c-2.754-2.242-5.023-5.077-6.79-8.512
		c-1.776-3.436-2.655-7.75-2.655-12.961c0-5.409,1.121-10.566,3.354-15.455c2.242-4.897,5.444-9.211,9.606-12.961
		c4.162-3.749,9.158-6.718,14.988-8.898c5.83-2.188,12.333-3.283,19.518-3.283c6.557,0,11.92,0.655,16.083,1.955
		c4.162,1.301,7.283,2.628,9.374,3.983l0.619-3.436c2.395-0.215,4.736-0.368,7.032-0.475c2.287-0.099,4.628-0.153,7.023-0.153
		c2.395,0,4.709,0.054,6.951,0.153c2.233,0.107,4.548,0.26,6.943,0.475l-7.337,37.161c-2.709,0.207-5.417,0.359-8.118,0.466
		c-2.709,0.108-5.417,0.153-8.117,0.153c-2.709,0-5.391-0.045-8.046-0.153c-2.655-0.107-5.337-0.26-8.037-0.466
		c0.207-1.041,0.332-1.776,0.386-2.188s0.081-0.727,0.081-0.933c0-2.189-1.148-4.117-3.436-5.786
		c-2.296-1.659-5.731-2.494-10.306-2.494c-4.27,0-7.185,0.682-8.746,2.027c-1.561,1.354-2.341,2.763-2.341,4.216
		c0,1.354,0.466,2.421,1.408,3.202c0.933,0.78,2.655,1.534,5.148,2.26l15.769,4.691c5.624,1.561,10.441,3.301,14.45,5.229
		c4,1.928,7.284,4.189,9.831,6.79s4.422,5.57,5.624,8.898c1.193,3.337,1.794,7.238,1.794,11.714c0,5.516-0.727,10.36-2.189,14.522
		c-1.453,4.162-3.408,7.786-5.848,10.853c-2.449,3.068-5.265,5.642-8.432,7.723c-3.184,2.09-6.512,3.731-10.001,4.924
		s-6.969,2.054-10.458,2.574s-6.79,0.78-9.912,0.78c-4.27,0-8.153-0.233-11.634-0.7c-3.489-0.466-6.512-1.014-9.059-1.642
		c-2.547-0.627-4.628-1.273-6.243-1.955c-1.614-0.673-2.735-1.166-3.354-1.48l-0.79,3.435c-2.493,0.207-4.969,0.368-7.409,0.467
		c-2.449,0.107-4.871,0.161-7.266,0.161c-2.395,0-4.79-0.054-7.185-0.161c-2.395-0.099-4.79-0.26-7.176-0.467L437.576,1407.403z M546.566,1420.525l11.553-57.621h-7.185c1.255-9.364,3.121-18.738,5.624-28.102h50.903
		c-1.148,9.364-3.022,18.738-5.624,28.102h-8.746l-11.392,57.146h18.738l3.588-18.109c2.601-0.207,5.175-0.368,7.732-0.467
		c2.547-0.107,5.122-0.161,7.723-0.161s5.185,0.054,7.732,0.161c2.547,0.099,5.13,0.26,7.732,0.467l-9.212,46.687h-91.813
		c0.52-4.682,1.247-9.364,2.188-14.055c0.933-4.682,2.027-9.364,3.274-14.046H546.566z M705.042,1411.618H698.8c0.52-4.682,1.22-9.229,2.108-13.661c0.888-4.422,2-8.979,3.354-13.661h48.562
		c-0.52,4.682-1.22,9.239-2.108,13.661c-0.879,4.431-2,8.979-3.354,13.661h-5.148l-5.938,29.986
		c-0.933,0.413-2.682,1.166-5.229,2.26c-2.556,1.094-5.803,2.188-9.759,3.283c-3.956,1.085-8.566,2.081-13.822,2.96
		c-5.256,0.888-11.113,1.327-17.563,1.327c-9.266,0-17.123-1.3-23.582-3.901c-6.449-2.602-11.688-6.136-15.688-10.62
		c-4.01-4.467-6.898-9.732-8.665-15.769c-1.776-6.037-2.655-12.432-2.655-19.204c0-8.019,1.328-16.182,3.982-24.515
		c2.646-8.323,6.602-15.849,11.867-22.567c5.248-6.709,11.732-12.199,19.438-16.468s16.657-6.404,26.855-6.404
		c6.037,0,11.347,0.655,15.93,1.956c4.575,1.3,8.064,2.727,10.458,4.296l0.781-3.436c4.79-0.314,9.579-0.475,14.369-0.475
		c4.162,0,8.378,0.161,12.647,0.475l-8.746,43.557c-2.816,0.215-5.624,0.368-8.432,0.476c-2.816,0.099-5.624,0.152-8.431,0.152
		c-2.817,0-5.597-0.054-8.36-0.152c-2.754-0.108-5.49-0.26-8.198-0.476l0.78-4.682c0.107-0.521,0.188-1.041,0.242-1.561
		c0.045-0.521,0.072-1.041,0.072-1.561c0-2.807-0.906-4.996-2.727-6.557c-1.83-1.561-4.665-2.341-8.513-2.341
		c-2.708,0-5.516,0.834-8.431,2.494c-2.915,1.668-5.57,4.171-7.965,7.499c-2.395,3.328-4.368,7.544-5.929,12.647
		c-1.57,5.104-2.35,11.14-2.35,18.11c0,6.978,1.435,11.894,4.296,14.755c2.861,2.871,6.844,4.296,11.948,4.296
		c2.188,0,4.081-0.099,5.696-0.314c1.614-0.206,2.529-0.359,2.735-0.466L705.042,1411.618z M755.793,1420.525l11.553-57.621h-7.185c1.256-9.364,3.122-18.738,5.624-28.102h55.433
		c5.723,0,10.898,0.52,15.535,1.561c4.628,1.04,8.557,2.78,11.786,5.229s5.723,5.642,7.499,9.598
		c1.767,3.964,2.655,8.799,2.655,14.522c0,8.126-1.982,15.123-5.938,21.007c-3.956,5.884-9.104,10.799-15.455,14.755l4.996,19.052
		h11.086c-0.521,4.682-1.247,9.364-2.188,14.046c-0.933,4.691-2.027,9.374-3.274,14.055h-37.323l-9.06-40.91h-8.736l-2.655,12.809
		h6.871c-0.529,4.682-1.256,9.364-2.189,14.046c-0.941,4.691-2.027,9.374-3.283,14.055h-48.4c0.521-4.682,1.247-9.364,2.188-14.055
		c0.933-4.682,2.027-9.364,3.274-14.046H755.793z M811.378,1380.547c3.436,0,6.243-0.959,8.432-2.888
		c2.188-1.928,3.283-4.547,3.283-7.884c0-3.122-0.915-5.13-2.736-6.01c-1.821-0.888-3.668-1.328-5.543-1.328h-12.961l-3.588,18.11
		H811.378z M859.473,1401.94c0-8.226,1.274-16.496,3.821-24.828c2.547-8.324,6.53-15.823,11.947-22.487
		c5.409-6.655,12.226-12.1,20.451-16.315c8.226-4.216,18.065-6.324,29.51-6.324c10.414,0,18.998,1.615,25.77,4.843
		c6.763,3.229,12.1,7.311,16.002,12.253c3.902,4.951,6.638,10.306,8.198,16.083c1.561,5.786,2.341,11.221,2.341,16.325
		c0,8.216-1.273,16.495-3.821,24.819c-2.557,8.333-6.539,15.831-11.948,22.487c-5.417,6.665-12.262,12.1-20.531,16.316
		c-8.279,4.216-18.092,6.323-29.438,6.323c-10.405,0-18.998-1.614-25.761-4.834c-6.772-3.229-12.1-7.31-16.001-12.262
		c-3.911-4.942-6.638-10.306-8.198-16.083C860.253,1412.479,859.473,1407.044,859.473,1401.94z M913.336,1421.458
		c4.162,0,7.813-1.247,10.934-3.749c3.122-2.494,5.696-5.696,7.732-9.598c2.027-3.911,3.534-8.198,4.521-12.89
		c0.996-4.682,1.489-9.212,1.489-13.58c0-2.081-0.215-4.296-0.628-6.637c-0.413-2.341-1.166-4.476-2.261-6.404
		c-1.094-1.919-2.556-3.507-4.377-4.763c-1.821-1.247-4.189-1.866-7.104-1.866c-4.162,0-7.804,1.247-10.925,3.741
		c-3.121,2.502-5.705,5.705-7.731,9.606c-2.027,3.901-3.543,8.198-4.53,12.88s-1.48,9.212-1.48,13.589
		c0,2.081,0.206,4.288,0.619,6.628c0.422,2.35,1.175,4.485,2.27,6.404c1.094,1.929,2.547,3.517,4.368,4.763
		S910.421,1421.458,913.336,1421.458z M990.009,1362.904h-7.185c1.256-9.364,3.122-18.738,5.624-28.102h52.93
		c-1.247,9.364-3.122,18.738-5.615,28.102h-8.593l-8.584,42.938c-0.421,1.982-0.628,3.902-0.628,5.776
		c0,3.857,0.96,6.485,2.888,7.885c1.929,1.408,4.296,2.107,7.104,2.107c3.956,0,7.158-1.013,9.606-3.041
		c2.44-2.027,4.243-5.75,5.382-11.167l8.907-44.499h-8.432c1.031-9.364,2.906-18.738,5.615-28.102h52.778
		c-1.148,9.364-3.023,18.738-5.624,28.102h-7.023l-10.306,50.903c-2.494,12.701-8.377,22.146-17.643,28.344
		c-9.266,6.189-21.599,9.283-37.009,9.283c-14.154,0-25.008-2.906-32.551-8.745c-7.552-5.821-11.32-13.993-11.32-24.514
		c0-1.767,0.153-4.108,0.467-7.023c0.314-2.915,0.986-6.924,2.027-12.019L990.009,1362.904z M1099.465,1420.525l11.553-57.621h-7.185c1.256-9.364,3.122-18.738,5.624-28.102h54.186
		c6.97,0,12.773,0.834,17.41,2.494c4.628,1.668,8.324,3.902,11.078,6.718c2.763,2.808,4.709,6.09,5.857,9.831
		c1.148,3.75,1.722,7.705,1.722,11.867c0,5.525-0.995,10.799-2.969,15.849c-1.982,5.05-4.969,9.553-8.979,13.508
		c-4.01,3.956-9.006,7.104-14.988,9.445c-5.992,2.341-12.988,3.516-20.998,3.516h-15.464l-2.493,12.495h14.36
		c-0.521,4.682-1.247,9.364-2.188,14.046c-0.933,4.691-2.027,9.374-3.274,14.055h-55.898c0.52-4.682,1.247-9.364,2.188-14.055
		c0.933-4.682,2.027-9.364,3.274-14.046H1099.465z M1153.176,1380.547c2.709,0,5.13-0.906,7.265-2.736
		c2.126-1.812,3.202-4.547,3.202-8.189c0-2.709-0.735-4.583-2.188-5.624c-1.462-1.041-3.381-1.561-5.776-1.561h-10.154l-3.588,18.11
		H1153.176z M1321.375,1376.646c0.206-0.941,0.358-1.848,0.466-2.735c0.099-0.879,0.152-1.687,0.152-2.422
		c0-6.243-3.587-9.364-10.772-9.364c-2.395,0-4.897,0.727-7.498,2.188c-2.602,1.453-4.996,3.615-7.176,6.476
		c-2.188,2.861-3.982,6.458-5.391,10.772c-1.408,4.324-2.108,9.292-2.108,14.917c0,6.97,1.74,12.235,5.229,15.769
		c3.489,3.543,9.347,5.31,17.571,5.31c4.368,0,8.504-0.439,12.414-1.328c3.902-0.888,7.409-1.973,10.54-3.283
		c3.121-1.3,5.848-2.655,8.197-4.054c2.342-1.408,4.189-2.583,5.544-3.516l-7.347,37.314c-1.139,0.529-2.861,1.282-5.148,2.269
		c-2.296,0.987-5.104,1.956-8.432,2.888c-3.336,0.933-7.185,1.767-11.553,2.494c-4.377,0.736-9.167,1.094-14.369,1.094
		c-9.992,0-18.343-1.247-25.062-3.74c-6.709-2.502-12.1-5.992-16.163-10.468c-4.055-4.476-6.97-9.732-8.736-15.769
		c-1.776-6.037-2.655-12.647-2.655-19.832c0-11.032,1.74-20.863,5.229-29.51c3.48-8.638,8.091-15.93,13.813-21.859
		c5.731-5.938,12.234-10.458,19.518-13.589c7.292-3.122,14.729-4.682,22.335-4.682c3.848,0,7.185,0.233,9.992,0.708
		c2.807,0.466,5.202,1.041,7.185,1.713c1.973,0.682,3.588,1.354,4.834,2.027c1.256,0.682,2.188,1.229,2.817,1.642l0.618-3.274
		c2.396-0.215,4.763-0.368,7.104-0.475c2.341-0.099,4.709-0.153,7.104-0.153s4.709,0.054,6.951,0.153
		c2.234,0.107,4.557,0.26,6.952,0.475l-10.772,53.396c-2.915,0.206-5.785,0.368-8.594,0.466c-2.807,0.107-5.623,0.162-8.431,0.162
		s-5.598-0.054-8.351-0.162c-2.763-0.099-5.499-0.26-8.199-0.466L1321.375,1376.646z M1374.184,1373.623l32.502-36.013h19.433l-7.459,37.107h5.525c-0.22,2.341-0.542,4.592-0.96,6.741
		c-0.421,2.152-0.964,4.399-1.632,6.741h-5.525l-1.763,8.965h-19.101l1.763-8.965h-25.631L1374.184,1373.623z M1399.563,1374.717
		l2.848-13.988l-12.732,13.988H1399.563z M1454.614,1407.403c2.709-0.207,5.444-0.359,8.198-0.466c2.763-0.099,5.489-0.153,8.198-0.153
		s5.364,0.054,7.966,0.153c2.601,0.107,5.256,0.26,7.965,0.466c-0.422,1.776-0.655,2.915-0.709,3.435
		c-0.054,0.521-0.071,0.888-0.071,1.095c0,2.708,1.479,4.996,4.448,6.871s7.257,2.807,12.881,2.807c3.955,0,6.844-0.672,8.664-2.027
		c1.821-1.354,2.736-2.915,2.736-4.682c0-1.668-0.422-2.942-1.256-3.83c-0.834-0.879-2.7-1.74-5.615-2.574l-17.177-5.148
		c-3.436-1.041-6.87-2.243-10.306-3.597c-3.436-1.345-6.53-3.148-9.293-5.382c-2.754-2.242-5.023-5.077-6.79-8.512
		c-1.776-3.436-2.655-7.75-2.655-12.961c0-5.409,1.121-10.566,3.355-15.455c2.242-4.897,5.444-9.211,9.605-12.961
		c4.162-3.749,9.158-6.718,14.988-8.898c5.831-2.188,12.334-3.283,19.519-3.283c6.557,0,11.921,0.655,16.083,1.955
		c4.161,1.301,7.283,2.628,9.373,3.983l0.619-3.436c2.395-0.215,4.735-0.368,7.031-0.475c2.288-0.099,4.629-0.153,7.023-0.153
		c2.396,0,4.709,0.054,6.952,0.153c2.233,0.107,4.547,0.26,6.942,0.475l-7.338,37.161c-2.708,0.207-5.417,0.359-8.117,0.466
		c-2.709,0.108-5.418,0.153-8.117,0.153c-2.709,0-5.391-0.045-8.046-0.153c-2.655-0.107-5.337-0.26-8.037-0.466
		c0.206-1.041,0.332-1.776,0.386-2.188s0.081-0.727,0.081-0.933c0-2.189-1.148-4.117-3.436-5.786
		c-2.296-1.659-5.731-2.494-10.306-2.494c-4.27,0-7.186,0.682-8.746,2.027c-1.561,1.354-2.341,2.763-2.341,4.216
		c0,1.354,0.467,2.421,1.408,3.202c0.933,0.78,2.655,1.534,5.148,2.26l15.769,4.691c5.624,1.561,10.441,3.301,14.45,5.229
		c4.001,1.928,7.283,4.189,9.831,6.79c2.547,2.601,4.422,5.57,5.624,8.898c1.192,3.337,1.794,7.238,1.794,11.714
		c0,5.516-0.727,10.36-2.188,14.522c-1.453,4.162-3.409,7.786-5.849,10.853c-2.448,3.068-5.266,5.642-8.432,7.723
		c-3.184,2.09-6.512,3.731-10.001,4.924s-6.97,2.054-10.459,2.574s-6.79,0.78-9.911,0.78c-4.27,0-8.153-0.233-11.634-0.7
		c-3.489-0.466-6.512-1.014-9.06-1.642c-2.547-0.627-4.628-1.273-6.242-1.955c-1.615-0.673-2.736-1.166-3.354-1.48l-0.79,3.435
		c-2.493,0.207-4.969,0.368-7.408,0.467c-2.449,0.107-4.871,0.161-7.266,0.161c-2.396,0-4.79-0.054-7.185-0.161
		c-2.396-0.099-4.79-0.26-7.176-0.467L1454.614,1407.403z M1631.065,1376.646c0.206-0.941,0.358-1.848,0.467-2.735c0.099-0.879,0.152-1.687,0.152-2.422
		c0-6.243-3.588-9.364-10.772-9.364c-2.396,0-4.897,0.727-7.499,2.188c-2.601,1.453-4.996,3.615-7.176,6.476
		c-2.188,2.861-3.982,6.458-5.391,10.772c-1.408,4.324-2.107,9.292-2.107,14.917c0,6.97,1.739,12.235,5.229,15.769
		c3.488,3.543,9.346,5.31,17.571,5.31c4.368,0,8.503-0.439,12.414-1.328c3.901-0.888,7.408-1.973,10.539-3.283
		c3.121-1.3,5.849-2.655,8.198-4.054c2.341-1.408,4.188-2.583,5.543-3.516l-7.346,37.314c-1.14,0.529-2.861,1.282-5.148,2.269
		c-2.297,0.987-5.104,1.956-8.432,2.888c-3.337,0.933-7.185,1.767-11.553,2.494c-4.378,0.736-9.167,1.094-14.37,1.094
		c-9.992,0-18.343-1.247-25.061-3.74c-6.71-2.502-12.101-5.992-16.163-10.468c-4.055-4.476-6.97-9.732-8.737-15.769
		c-1.775-6.037-2.654-12.647-2.654-19.832c0-11.032,1.739-20.863,5.229-29.51c3.48-8.638,8.091-15.93,13.813-21.859
		c5.731-5.938,12.234-10.458,19.519-13.589c7.292-3.122,14.728-4.682,22.334-4.682c3.848,0,7.185,0.233,9.992,0.708
		c2.808,0.466,5.202,1.041,7.185,1.713c1.974,0.682,3.588,1.354,4.835,2.027c1.256,0.682,2.188,1.229,2.816,1.642l0.619-3.274
		c2.395-0.215,4.763-0.368,7.104-0.475c2.341-0.099,4.709-0.153,7.104-0.153c2.395,0,4.709,0.054,6.951,0.153
		c2.233,0.107,4.557,0.26,6.951,0.475l-10.772,53.396c-2.915,0.206-5.785,0.368-8.593,0.466c-2.808,0.107-5.624,0.162-8.432,0.162
		s-5.597-0.054-8.351-0.162c-2.763-0.099-5.498-0.26-8.198-0.466L1631.065,1376.646z M1670.721,1420.525l11.553-57.621h-7.185c1.256-9.364,3.121-18.738,5.624-28.102h55.433
		c5.723,0,10.897,0.52,15.535,1.561c4.628,1.04,8.557,2.78,11.786,5.229c3.229,2.449,5.723,5.642,7.498,9.598
		c1.768,3.964,2.655,8.799,2.655,14.522c0,8.126-1.982,15.123-5.938,21.007c-3.956,5.884-9.104,10.799-15.455,14.755l4.996,19.052
		h11.087c-0.521,4.682-1.247,9.364-2.188,14.046c-0.934,4.691-2.027,9.374-3.274,14.055h-37.322l-9.06-40.91h-8.736l-2.655,12.809
		h6.871c-0.529,4.682-1.256,9.364-2.189,14.046c-0.941,4.691-2.026,9.374-3.282,14.055h-48.4c0.521-4.682,1.247-9.364,2.188-14.055
		c0.933-4.682,2.027-9.364,3.274-14.046H1670.721z M1726.306,1380.547c3.435,0,6.242-0.959,8.431-2.888
		c2.189-1.928,3.283-4.547,3.283-7.884c0-3.122-0.915-5.13-2.735-6.01c-1.821-0.888-3.669-1.328-5.544-1.328h-12.961l-3.588,18.11
		H1726.306z M1782.984,1420.525l11.553-57.621h-7.185c1.256-9.364,3.122-18.738,5.624-28.102h48.4l5.785,65.425
		l32.632-65.425h48.4c-1.147,9.364-3.014,18.738-5.615,28.102h-7.032l-11.553,57.621h7.023c-0.521,4.682-1.247,9.364-2.18,14.046
		c-0.941,4.691-2.036,9.374-3.283,14.055h-41.377l12.02-60.581l-27.008,58.24h-23.268l-3.587-58.24l-12.028,60.581h-39.969
		c0.52-4.682,1.246-9.364,2.188-14.055c0.933-4.682,2.026-9.364,3.273-14.046H1782.984z M1166.549,1528.834h33.583
		c-2.162,3.014-4.951,7.104-8.396,12.271c-3.454,5.166-5.813,9.041-7.104,11.625h23.25c-0.87,8.619-1.292,17.222-1.292,25.832v66.52
		c0,5.166-1.399,8.494-4.198,10.01c-2.808,1.507-7.211,2.682-13.239,3.552c-0.87-4.745-2.162-9.266-3.875-13.562
		c3.444,0,6.027-0.099,7.75-0.323c1.713-0.215,2.583-2.261,2.583-6.135v-21.313h-13.563v30.354h-10.979v-30.354h-13.563
		c-0.431,6.458-1.516,13.141-3.229,20.021c-1.722,6.889-4.521,14.423-8.396,22.604c-3.875-2.162-7.974-4.306-12.271-6.458
		c4.296-6.037,7.525-13.455,9.687-22.281c2.153-8.816,3.444-20.119,3.875-33.905c0.422-13.777,0.422-27.546,0-41.332
		c-3.453,3.875-6.243,6.889-8.396,9.042c-2.583-3.445-5.597-6.459-9.042-9.042c6.458-5.166,12.369-11.517,17.76-19.052
		c5.382-7.525,9.786-16.468,13.239-26.801c3.444,2.162,7.965,4.521,13.562,7.104
		C1170.846,1518.932,1168.263,1522.806,1166.549,1528.834z M1171.716,1552.729c3.444-4.297,6.458-9.042,9.042-14.208h-20.666
		c-3.875,5.166-7.328,9.911-10.333,14.208H1171.716z M1171.07,1606.978v-17.437H1158.8l-0.646,17.437H1171.07z M1171.07,1579.854
		v-17.438H1158.8v17.438H1171.07z M1195.611,1579.854v-17.438h-13.563v17.438H1195.611z M1195.611,1606.978v-17.437h-13.563v17.437
		H1195.611z M1246.631,1556.604c4.735,0,8.494-0.215,11.302-0.646c2.798-0.421,4.413-1.713,4.843-3.875
		c0.422-2.152,1.068-9.687,1.938-22.604h-23.249c-2.583,12.056-5.167,20.774-7.75,26.155c-2.583,5.392-6.683,11.303-12.271,17.761
		c-2.583-3.444-6.037-6.674-10.333-9.688c4.736-3.444,8.611-7.849,11.625-13.239c3.005-5.382,5.167-12.369,6.458-20.989
		c-5.167,0-11.409,0.225-18.729,0.646v-10.979c6.88,0.431,13.132,0.646,18.729,0.646h48.437
		c-1.292,21.096-2.485,33.807-3.552,38.103c-1.077,4.306-3.776,7.328-8.073,9.042c-4.306,1.722-9.266,2.807-14.854,3.229
		C1250.281,1565.43,1248.783,1560.909,1246.631,1556.604z M1231.777,1592.124h10.979c0-9.042-0.225-15.069-0.646-18.083h12.917
		c-0.87,3.875-1.292,9.911-1.292,18.083h9.041c6.459,0,11.625-0.216,15.5-0.646v11.624c-5.597-0.861-11.203-1.292-16.791-1.292
		h-7.75v18.729h4.521c8.172,0,16.567-0.216,25.188-0.646v10.979c-8.181-0.422-16.576-0.646-25.188-0.646h-4.521v10.979
		c0,6.027,0.215,13.562,0.646,22.604h-12.271c0.422-9.042,0.646-16.576,0.646-22.604v-10.979h-14.208
		c-4.745,0-10.764,0.225-18.083,0.646v-10.979c6.458,0.431,12.486,0.646,18.083,0.646h14.208v-18.729h-16.146
		c-1.292,3.454-3.229,7.75-5.813,12.917c-3.014-1.714-6.458-4.091-10.333-7.104c3.005-3.444,5.588-7.965,7.75-13.562
		c2.152-5.589,3.875-10.979,5.166-16.146l12.917,6.458C1234.136,1586.096,1232.638,1588.68,1231.777,1592.124z M1322.191,1618.925
		c-5.167,10.118-9.042,18.19-11.625,24.219c-3.875-3.444-8.62-6.674-14.208-9.688c4.735-5.588,9.902-13.132,15.499-22.604
		c5.589-9.463,10.109-18.944,13.563-28.416c3.005,3.453,6.88,6.458,11.625,9.042
		C1332.3,1599.658,1327.357,1608.816,1322.191,1618.925z M1322.837,1540.459c4.296,5.166,8.817,10.557,13.562,16.145
		c-3.453,2.584-7.104,5.813-10.979,9.688c-3.875-5.588-12.701-16.146-26.479-31.645c3.444-3.005,6.88-6.234,10.333-9.688
		C1314.011,1530.125,1318.531,1535.292,1322.837,1540.459z M1347.378,1552.083v-12.271c7.749,0.431,17.858,0.646,30.354,0.646
		c0-12.047-0.225-21.313-0.646-27.771c4.736,0.431,9.688,0.87,14.854,1.292c-0.871,6.037-1.292,14.854-1.292,26.479h38.103
		c-0.43,6.889-0.646,22.604-0.646,47.145c6.88,0,12.916-0.216,18.083-0.646v12.271c-6.458-0.421-12.916-0.646-19.375-0.646h-32.936
		c12.485,26.703,31.214,42.408,56.186,47.145c-4.745,3.444-7.975,8.396-9.688,14.854c-26.702-9.041-44.992-26.479-54.895-52.311
		c-9.472,23.249-25.832,41.754-49.082,55.54c-2.583-4.306-6.242-7.75-10.979-10.333c25.402-12.917,41.979-31.215,49.728-54.895
		h-10.333c-7.75,0-15.499,0.225-23.249,0.646v-12.271c7.75,0.431,15.499,0.646,23.249,0.646h11.625
		c0.861-14.208,1.292-26.255,1.292-36.166C1365.236,1551.438,1355.127,1551.662,1347.378,1552.083z M1415.188,1587.604v-36.166
		h-24.541c-0.431,14.639-0.87,26.703-1.292,36.166H1415.188z M1539.831,1534.323
		c-1.292,4.951-3.015,11.732-5.167,20.343h51.665c4.297,0,10.755-0.215,19.375-0.646v12.271c-8.62-0.422-15.078-0.646-19.375-0.646
		h-54.248c-2.583,6.458-5.391,12.916-8.396,19.374h68.456c-8.181,19.806-19.599,36.391-34.229,49.729
		c11.625,8.18,28.632,13.562,51.02,16.145c-3.014,3.445-5.597,7.75-7.749,12.917c-8.62-1.723-17.438-4.198-26.479-7.427
		c-9.042-3.229-17.868-7.857-26.479-13.886c-6.889,4.306-15.284,8.495-25.188,12.594c-9.911,4.09-20.02,7.427-30.353,10.01
		c-0.87-4.305-3.015-8.396-6.458-12.271c9.463-1.291,18.943-3.552,28.415-6.78c9.463-3.229,17.858-7.203,25.188-11.948
		c-7.329-7.319-15.5-17.858-24.541-31.645c-4.745,7.75-10.764,15.284-18.083,22.604c-7.328,7.328-15.284,13.992-23.896,20.021
		c-1.722-3.005-5.166-6.234-10.333-9.688c6.458-3.444,12.809-7.965,19.052-13.563c6.233-5.588,12.809-13.015,19.697-22.28
		c6.88-9.257,12.692-20.559,17.437-33.905c-11.203,0-19.805,0.224-25.832,0.646c-6.037,0.431-10.558,1.292-13.563,2.584
		c-1.291-3.875-3.014-7.966-5.166-12.271c4.296-0.86,7.427-4.09,9.364-9.687c1.938-5.589,3.974-14.208,6.135-25.833
		c3.444,1.722,8.172,3.454,14.208,5.167c-2.161,4.305-4.099,8.718-5.813,13.239c-1.722,4.521-3.659,9.588-5.812,15.176h29.707
		c3.444-13.777,6.027-26.899,7.75-39.395c4.735,2.583,9.688,4.1,14.854,4.521
		C1542.836,1524.538,1541.122,1529.381,1539.831,1534.323z M1549.518,1627.644c9.463-7.75,17.859-18.504,25.188-32.291h-50.374
		C1530.358,1606.116,1538.754,1616.889,1549.518,1627.644z M1590.85,1541.104c-3.014,1.722-6.682,4.521-10.979,8.396
		c-6.889-9.902-13.563-18.298-20.021-25.187c3.005-2.153,6.028-4.942,9.042-8.396
		C1576.212,1524.098,1583.521,1532.493,1590.85,1541.104z M1681.91,1537.875
		c4.736-9.463,8.171-18.729,10.333-27.77c6.027,2.162,11.4,4.099,16.146,5.812c-2.162,1.722-6.037,9.042-11.625,21.958h47.791
		c12.916,0,23.464-0.215,31.645-0.646v11.625h-85.248c-6.889,12.055-13.347,21.742-19.374,29.062h33.582
		c0-9.463-0.224-17.213-0.646-23.25h13.563c-0.431,6.037-0.646,13.787-0.646,23.25h45.207c-0.431,7.75-0.646,15.499-0.646,23.249
		v26.479c0,8.181-2.261,13.347-6.781,15.5c-4.521,2.161-11.086,3.659-19.697,4.521c-0.87-6.027-2.808-10.979-5.813-14.854
		c9.902,0,15.822-0.646,17.76-1.938c1.938-1.292,2.683-4.736,2.261-10.333v-31.646h-32.291v43.916
		c0,9.041,0.216,18.943,0.646,29.707h-13.563c0.422-10.764,0.646-20.666,0.646-29.707v-43.916h-30.353v58.123h-12.917
		c0.422-9.041,0.646-17.858,0.646-26.478v-30.999c-5.597,6.458-13.992,14.638-25.187,24.541c-3.014-3.445-6.889-6.674-11.624-9.688
		c9.463-6.458,18.62-14.307,27.446-23.572c8.817-9.257,16.469-19.913,22.927-31.968h-15.5c-10.763,0-20.666,0.224-29.707,0.646
		v-12.271c9.041,0.431,18.944,0.646,29.707,0.646H1681.91z M1944.111,1571.458
		c-3.875,3.453-6.889,7.328-9.042,11.624c-29.285-13.338-51.449-30.568-66.519-51.665c-20.244,22.828-42.408,41.117-66.52,54.895
		c-4.305-6.027-7.974-9.688-10.979-10.979c15.921-5.589,31.098-14.854,45.53-27.771c14.423-12.916,24.218-24.756,29.385-35.52
		c3.874,2.583,8.396,4.951,13.562,7.104l-3.875,3.875C1890.724,1544.558,1913.533,1560.703,1944.111,1571.458z M1833.031,1645.727
		c28.416-0.861,50.373-1.713,65.873-2.583c-3.875-4.297-9.688-9.903-17.438-16.792c3.005-2.583,6.027-5.381,9.042-8.396
		c6.027,5.598,11.84,11.087,17.437,16.469c5.588,5.391,12.047,11.947,19.375,19.697c-3.014,2.583-6.683,5.813-10.979,9.688
		c-3.875-5.598-7.104-9.472-9.687-11.625c-9.912,0.422-25.94,1.292-48.113,2.583c-22.183,1.292-36.489,2.799-42.947,4.521
		c-2.162-5.598-3.875-9.912-5.166-12.917c6.879-2.152,15.068-7.642,24.541-16.468c9.463-8.817,16.145-16.038,20.02-21.635h-18.729
		c-11.625,0-22.388,0.224-32.291,0.646v-10.979c10.334,0.431,20.882,0.646,31.646,0.646h64.581c10.755,0,21.313-0.215,31.646-0.646
		v10.979c-10.333-0.422-21.743-0.646-34.229-0.646h-38.749c3.444,3.453,6.674,6.036,9.688,7.749
		C1865.537,1618.181,1853.697,1628.074,1833.031,1645.727z M1880.176,1568.875c9.463,0,17.213-0.216,23.249-0.646v11.625
		c-6.458-0.422-14.208-0.646-23.249-0.646h-27.771c-8.181,0-15.078,0.225-20.666,0.646v-11.625
		c5.588,0.431,12.271,0.646,20.021,0.646H1880.176z"/>
	<g stroke="url(#logoGradient)">
			<polyline fill="none" stroke-width="18.3699" stroke-miterlimit="10" points="232.391,1595.918 
				232.391,1605.103 241.337,1607.185"/>
			<path fill="none" stroke-width="18.3699" stroke-miterlimit="10" stroke-dasharray="18.2631,18.2631" d="
				M259.125,1611.323l203.952,47.459c0,0,150.336,19.952,166.078-93.353c8.09-76.95-120.319-96.988-127.692,6.404
				c0,0,92.226,178.847,70.376,222.834c-21.851,43.987-128.813,41.323-99.671-52.078c34.345-81.584,136.339-65.438,136.339-65.438
				l1395.642,237.871M2022.205,1890.171L2022.205,1037.344M1994.783,1018.788L253.197,1018.788M232.391,1010.293L232.391,1586.757"/>
			<polyline fill="none" stroke-width="18.3699" stroke-miterlimit="10" points="2013.15,1916.557 
				2022.205,1918.1 2022.205,1908.915"/>
			<polyline fill="none" stroke-width="18.3699" stroke-miterlimit="10" points="2022.205,1027.973 
				2022.205,1018.788 2013.021,1018.788"/>
		</g>
	</g>
</svg>